<?xml version="1.0" standalone="no"?>
<!DOCTYPE svg PUBLIC "-//W3C//DTD SVG 20010904//EN"
 "http://www.w3.org/TR/2001/REC-SVG-20010904/DTD/svg10.dtd">
<svg version="1.0" xmlns="http://www.w3.org/2000/svg"
 width="700.000000pt" height="700.000000pt" viewBox="0 0 700.000000 700.000000"
 preserveAspectRatio="xMidYMid meet">
<metadata>
Created by potrace 1.14, written by Peter Selinger 2001-2017
</metadata>
<g transform="translate(0.000000,700.000000) scale(0.100000,-0.100000)"
fill="#000000" stroke="none">
<path d="M2167 6774 c-1 -1 -36 -5 -77 -8 -41 -3 -84 -8 -95 -10 -11 -2 -42
-7 -70 -10 -64 -9 -113 -16 -145 -22 -14 -2 -45 -7 -70 -10 -51 -7 -62 -12
-56 -23 9 -14 137 -523 133 -527 -2 -2 -53 26 -113 62 -60 37 -125 75 -144 86
-19 11 -74 44 -121 73 l-85 53 -56 -87 c-80 -123 -205 -372 -223 -441 0 -3
-10 -34 -22 -70 -21 -64 -35 -123 -51 -226 -12 -74 -6 -259 12 -329 28 -117
34 -135 65 -202 151 -323 509 -609 1066 -853 77 -34 154 -67 170 -74 45 -20
208 -83 315 -123 195 -71 231 -84 495 -168 149 -47 288 -93 310 -101 23 -8 49
-14 60 -14 10 0 16 -3 13 -6 -9 -8 -206 23 -388 61 -78 16 -317 85 -605 173
-377 116 -483 147 -625 183 -141 37 -291 68 -395 84 -93 14 -371 14 -450 0
-209 -36 -346 -105 -478 -238 -188 -191 -322 -498 -382 -881 -4 -21 -14 -85
-24 -143 -9 -57 -15 -106 -12 -108 4 -2 58 -6 121 -9 280 -14 422 -25 428 -31
5 -5 -4 -14 -93 -89 -39 -33 -74 -64 -80 -70 -5 -6 -39 -36 -75 -66 -35 -30
-84 -73 -107 -95 l-44 -40 56 -69 c163 -204 391 -401 575 -495 166 -85 310
-120 479 -116 274 7 490 100 821 355 238 183 670 671 983 1110 72 102 307 423
313 429 10 9 -83 -170 -150 -289 -52 -92 -172 -277 -293 -450 -21 -30 -116
-166 -210 -301 -95 -135 -207 -302 -250 -371 -43 -68 -83 -133 -90 -144 -64
-102 -181 -361 -213 -469 -41 -142 -55 -328 -35 -460 32 -214 197 -452 443
-640 124 -95 217 -150 476 -284 103 -53 116 -58 116 -41 0 9 127 338 173 447
12 29 25 53 30 53 4 0 12 -12 18 -27 25 -67 184 -439 192 -450 10 -14 47 -2
197 64 224 100 403 216 535 347 51 50 103 107 116 126 12 19 26 37 30 40 4 3
24 39 46 80 46 85 88 205 98 276 4 27 9 58 11 69 7 32 7 227 0 265 -3 19 -8
51 -11 70 -3 19 -14 67 -24 105 -11 39 -26 96 -35 127 -46 170 -167 435 -306
673 -29 50 -60 104 -70 121 -10 17 -63 101 -117 185 -115 179 -248 370 -434
622 -25 34 -65 89 -89 122 -24 33 -57 78 -74 100 -81 107 146 -122 309 -312
39 -44 291 -373 395 -513 41 -56 196 -259 244 -320 185 -238 396 -456 534
-552 26 -18 49 -36 52 -39 10 -11 145 -86 180 -99 19 -7 40 -17 46 -21 6 -5
51 -19 100 -32 264 -70 558 4 859 216 96 68 162 124 285 243 58 56 126 122
152 147 l47 45 -47 40 c-26 22 -77 64 -113 94 -194 156 -268 223 -256 229 6 4
53 10 102 14 50 3 106 8 125 10 19 2 72 7 117 10 46 4 91 8 100 10 10 2 32 4
50 4 l32 1 -4 73 c-6 103 -14 187 -19 206 -3 9 -7 36 -10 61 -14 104 -48 245
-82 343 -147 409 -428 637 -869 707 -77 13 -419 16 -505 6 -30 -4 -71 -9 -90
-11 -271 -32 -703 -135 -1125 -266 -71 -22 -143 -46 -160 -52 -16 -6 -35 -12
-40 -13 -6 -1 -94 -29 -195 -64 -300 -100 -303 -100 -73 14 191 95 409 182
713 283 41 13 84 28 95 33 11 4 70 25 130 45 641 216 953 370 1169 575 153
146 252 328 272 499 34 299 -29 566 -231 972 -42 84 -81 159 -87 166 -13 16
-15 15 -266 -145 -218 -139 -227 -144 -219 -116 5 16 12 45 32 134 2 8 9 38
15 65 6 28 14 61 16 75 3 14 9 41 14 60 5 19 11 46 14 60 2 14 9 45 15 70 5
24 9 45 8 46 -16 14 -271 74 -377 88 -424 57 -744 -20 -989 -240 -124 -111
-271 -357 -340 -570 -53 -162 -106 -399 -125 -554 -2 -19 -7 -55 -10 -80 -11
-86 -14 -118 -31 -320 -11 -139 -19 -452 -20 -797 0 -215 -1 -391 -2 -390 -1
2 -30 165 -38 217 -2 14 -6 50 -9 80 -3 30 -8 78 -11 105 -7 64 -14 295 -20
650 -6 315 -13 561 -20 650 -10 132 -23 243 -35 310 -5 28 -11 61 -14 75 -26
153 -111 374 -192 495 -150 226 -390 357 -719 391 -52 6 -284 12 -288 8z"/>
</g>
</svg>
